
<global>
ampeg_attack=0.005
ampeg_release=0.35
</global>

<group>
group_label=RR1
seq_length=2
seq_position=1

<region>
hikey=F3
hivel=127
lokey=C3
lovel=0
offset=270
pitch_keycenter=D3
sample=Taylor_Acc_Picked_Harmonics_MF_D3_RR1.opus
volume=+10.84
</region>

<region>
hikey=B3
hivel=127
lokey=F#3
lovel=0
offset=3487
pitch_keycenter=A3
sample=Taylor_Acc_Picked_Harmonics_MF_A3_RR1.opus
volume=+7.39
</region>

<region>
hikey=D#4
hivel=127
lokey=C4
lovel=0
offset=2882
pitch_keycenter=D4
sample=Taylor_Acc_Picked_Harmonics_MF_D4_RR1.opus
volume=+7.52
</region>

<region>
end=495379
hikey=F4
hivel=127
lokey=E4
lovel=0
offset=3337
pitch_keycenter=E4
sample=Taylor_Acc_Picked_Harmonics_MF_E4_RR1.opus
volume=+8.20
</region>

<region>
hivel=127
key=F#4
lovel=0
offset=12953
sample=Taylor_Acc_Picked_Harmonics_MF_F#4_RR1.opus
volume=+4.09
</region>

<region>
hikey=G#4
hivel=127
lokey=G4
lovel=0
offset=9159
pitch_keycenter=G4
sample=Taylor_Acc_Picked_Harmonics_MF_G4_RR1.opus
volume=+5.41
</region>

<region>
hikey=A#4
hivel=127
lokey=A4
lovel=0
offset=12536
pitch_keycenter=A4
sample=Taylor_Acc_Picked_Harmonics_MF_A4_RR1.opus
volume=+6.85
</region>

<region>
hikey=C5
hivel=127
lokey=B4
lovel=0
offset=14775
pitch_keycenter=B4
sample=Taylor_Acc_Picked_Harmonics_MF_B4_RR1.opus
volume=+7.94
</region>

<region>
end=417633
hivel=127
key=C#5
lovel=0
offset=11621
sample=Taylor_Acc_Picked_Harmonics_MF_C#5_RR1.opus
volume=+1.59
</region>

<region>
hikey=D#5
hivel=127
lokey=D5
lovel=0
offset=12463
pitch_keycenter=D5
sample=Taylor_Acc_Picked_Harmonics_MF_D5_RR1.opus
volume=+8.56
</region>

<region>
hikey=F5
hivel=127
lokey=E5
lovel=0
offset=13391
pitch_keycenter=E5
sample=Taylor_Acc_Picked_Harmonics_MF_E5_RR1.opus
volume=+7.29
</region>

<region>
hivel=127
key=F#5
lovel=0
offset=-243
sample=Taylor_Acc_Picked_Harmonics_MF_F#5_RR1.opus
volume=+6.19
</region>

<region>
end=485787
hikey=A5
hivel=127
lokey=G5
lovel=0
offset=2088
pitch_keycenter=G5
sample=Taylor_Acc_Picked_Harmonics_MF_G5_RR1.opus
volume=+8.53
</region>

<region>
hikey=C#6
hivel=127
lokey=A#5
lovel=0
offset=8952
pitch_keycenter=B5
sample=Taylor_Acc_Picked_Harmonics_MF_B5_RR1.opus
volume=+10.42
</region>

<region>
end=379709
hikey=D#6
hivel=127
lokey=D6
lovel=0
offset=13692
pitch_keycenter=D#6
sample=Taylor_Acc_Picked_Harmonics_MF_D#6_RR1.opus
volume=+9.33
</region>

<region>
hikey=G#6
hivel=127
lokey=E6
lovel=0
offset=8254
pitch_keycenter=E6
sample=Taylor_Acc_Picked_Harmonics_MF_E6_RR1.opus
volume=+8.14
</region>
</group>

<group>
group_label=RR2
seq_length=2
seq_position=2

<region>
hikey=F3
hivel=127
lokey=C3
lovel=0
offset=756
pitch_keycenter=D3
sample=Taylor_Acc_Picked_Harmonics_MF_D3_RR2.opus
volume=+10.29
</region>

<region>
hikey=B3
hivel=127
lokey=F#3
lovel=0
offset=7644
pitch_keycenter=A3
sample=Taylor_Acc_Picked_Harmonics_MF_A3_RR2.opus
volume=+5.90
</region>

<region>
hikey=D#4
hivel=127
lokey=C4
lovel=0
offset=3939
pitch_keycenter=D4
sample=Taylor_Acc_Picked_Harmonics_MF_D4_RR2.opus
volume=+8.02
</region>

<region>
hikey=F4
hivel=127
lokey=E4
lovel=0
offset=1132
pitch_keycenter=E4
sample=Taylor_Acc_Picked_Harmonics_MF_E4_RR2.opus
volume=+7.72
</region>

<region>
hivel=127
key=F#4
lovel=0
offset=1533
sample=Taylor_Acc_Picked_Harmonics_MF_F#4_RR2.opus
volume=+4.40
</region>

<region>
hikey=G#4
hivel=127
lokey=G4
lovel=0
offset=6263
pitch_keycenter=G4
sample=Taylor_Acc_Picked_Harmonics_MF_G4_RR2.opus
volume=+8.79
</region>

<region>
hikey=A#4
hivel=127
lokey=A4
lovel=0
offset=12068
pitch_keycenter=A4
sample=Taylor_Acc_Picked_Harmonics_MF_A4_RR2.opus
volume=+4.68
</region>

<region>
hikey=C5
hivel=127
lokey=B4
lovel=0
offset=1610
pitch_keycenter=B4
sample=Taylor_Acc_Picked_Harmonics_MF_B4_RR2.opus
volume=+5.42
</region>

<region>
hivel=127
key=C#5
lovel=0
offset=2932
sample=Taylor_Acc_Picked_Harmonics_MF_C#5_RR2.opus
volume=+3.33
</region>

<region>
hikey=D#5
hivel=127
lokey=D5
lovel=0
offset=1590
pitch_keycenter=D5
sample=Taylor_Acc_Picked_Harmonics_MF_D5_RR2.opus
volume=+9.07
</region>

<region>
hikey=F5
hivel=127
lokey=E5
lovel=0
offset=2501
pitch_keycenter=E5
sample=Taylor_Acc_Picked_Harmonics_MF_E5_RR2.opus
volume=+5.74
</region>

<region>
hivel=127
key=F#5
lovel=0
offset=3621
sample=Taylor_Acc_Picked_Harmonics_MF_F#5_RR2.opus
volume=+6.84
</region>

<region>
hikey=A5
hivel=127
lokey=G5
lovel=0
offset=13145
pitch_keycenter=G5
sample=Taylor_Acc_Picked_Harmonics_MF_G5_RR2.opus
volume=+8.04
</region>

<region>
hikey=C#6
hivel=127
lokey=A#5
lovel=0
offset=8180
pitch_keycenter=B5
sample=Taylor_Acc_Picked_Harmonics_MF_B5_RR2.opus
volume=+7.72
</region>

<region>
hikey=D#6
hivel=127
lokey=D6
lovel=0
offset=3248
pitch_keycenter=D#6
sample=Taylor_Acc_Picked_Harmonics_MF_D#6_RR2.opus
volume=+3.23
</region>

<region>
hikey=G#6
hivel=127
lokey=E6
lovel=0
offset=12995
pitch_keycenter=E6
sample=Taylor_Acc_Picked_Harmonics_MF_E6_RR2.opus
volume=+14.39
</region>
</group>